<?xml version="1.0" encoding="UTF-8" standalone="no"?><!DOCTYPE svg PUBLIC "-//W3C//DTD SVG 1.1//EN" "http://www.w3.org/Graphics/SVG/1.1/DTD/svg11.dtd"><svg width="100%" height="100%" viewBox="0 0 474 379" version="1.1" xmlns="http://www.w3.org/2000/svg" xmlns:xlink="http://www.w3.org/1999/xlink" xml:space="preserve" xmlns:serif="http://www.serif.com/" style="fill-rule:evenodd;clip-rule:evenodd;stroke-linejoin:round;stroke-miterlimit:2;"><rect id="Artboard1" x="0" y="0" width="473.871" height="378.463" style="fill:none;"/><clipPath id="_clip1"><rect x="0" y="0" width="473.871" height="378.463"/></clipPath><g clip-path="url(#_clip1)"><g id="Layer1"><g><rect x="-33.856" y="-10.569" width="543.554" height="393.441" style="fill:#ebebeb;"/></g></g><path d="M510.441,145.238l-83.257,-0l13.365,45.375l-12.615,43.867l82.485,0l-0,10.508l-81.743,-0l7.56,40.132l-7.582,38.235l81.765,1.125l-0,10.5l-82.485,0l12.742,44.25l-14.25,0l-13.875,-44.25l-12.375,0l0,44.25l-14.25,0l0,-44.25l-52.492,0l-6.75,44.25l-14.25,0l6.75,-44.25l-41.993,0l6.75,44.25l-14.25,0l-6.75,-44.25l-88.492,0l-0,44.25l-14.25,0l-0,-44.25l-59.993,0l0,44.25l-14.25,0l0,-44.25l-34.492,0l-0,44.25l-13.5,0l-0,-44.25l-70.478,0l0,-10.5l69.368,0l1.125,-1.125l-0,-78.375l-70.493,0l0,-10.5l69.368,0l0.375,-89.25l-69.743,0l0,-10.5l69.743,0l0.75,-79.5l-70.493,0l0,-10.5l69.368,0l1.162,-2.587l-0.037,-42.413l13.5,0l-0.038,42.413l1.163,2.587l33.367,0l0,-44.992l14.25,-0l0,45l59.993,-0l-0,-45l14.25,-0l-0,45l88.492,-0l6.743,-45l14.25,-0l-6.75,45l41.992,-0l-6.742,-45l14.25,-0l6.75,45l52.492,-0l0,-45l14.25,-0l0.375,45l12.375,-0l13.493,-45l14.25,-0l-12.743,44.992l82.485,0l0,10.508l-81.742,-0l7.522,38.595l-8.272,40.905l82.507,-0l0,10.5Zm-424.47,-90l-34.492,-0l-0,79.5l34.492,-0l0,-79.5Zm74.243,-0l-59.993,-0l0,79.5l59.993,-0l-0,-79.5Zm101.242,-0l-86.992,-0l-0.75,79.5l86.992,-0l-5.317,-38.625l6.067,-40.875Zm59.243,79.507l6.48,-40.23l-6.068,-38.565l-45.337,-0.622l-6.105,40.83l5.272,38.595l45.75,-0l0.008,-0.008Zm65.242,-79.507l-50.242,-0l5.842,38.632l-6.592,40.868l50.242,-0l0.75,-79.5Zm13.493,79.5l13.875,-0l9.135,-40.223l-8.385,-39.277l-13.875,-0l-0.75,79.5Zm-313.463,10.5l-34.492,-0l-0,89.25l34.492,-0l0,-89.25Zm14.25,-0l0,89.25l59.993,-0l-0,-89.25l-59.993,-0Zm162.728,89.25l6.375,-44.655l-6.503,-43.35l-1.005,-1.245l-88.117,-0l0.75,89.25l88.5,-0Zm55.5,-89.25l-41.243,-0l6.353,44.602l-6.353,44.648l41.993,-0l-7.418,-46.208l6.668,-43.042Zm66.742,-0l-52.492,-0l-6.593,43.132l7.343,46.118l52.492,-0l-0.75,-89.25Zm27.743,89.25l13.17,-44.61l-14.295,-44.64l-12.375,-0l1.125,89.25l12.375,-0Zm-326.963,10.5l-34.492,-0l-0,79.5l34.492,-0l0,-79.5Zm74.243,-0l-59.993,-0l0,79.5l59.993,-0l-0,-79.5Zm101.242,-0l-86.992,-0l-0,79.5l86.992,-0l-5.917,-40.043l5.917,-39.457Zm14.28,79.462l45.383,-0.66l6.24,-39.345l-6.615,-39.135l-44.97,-0.24l-5.79,39.42l5.745,39.96l0.007,0Zm110.205,-79.462l-50.242,-0l6.022,40.087l-6.022,39.413l50.242,-0l0,-79.5Zm14.243,79.5l13.875,-0l8.542,-40.05l-8.542,-39.45l-13.875,-0l-0,79.5Z" style="fill:#c7c7c7;fill-rule:nonzero;"/></g></svg>